# xmcd
#
# Track frame offsets:
#	150
#	12268
#	29472
#	47558
#	70874
#	90529
#	111218
#	132426
#	159228
#	186219
#
# Disc length: 2618 seconds
# Revision: 0
# Processed by: cddbd v1.5.2PL0 Copyright (c) Steve Scherf et al.
# Submitted via: dBpowerAMP V12.0
#
DISCID=7c0a380a
DTITLE=Christian Mistress - Possession
DYEAR=2012
DGENRE=Metal
TTITLE0=Over and Over
TTITLE1=Pentagram And Crucifix
TTITLE2=Conviction
TTITLE3=The Way Beyond
TTITLE4=Possession
TTITLE5=Black To Gold
TTITLE6=There Is Nowhere
TTITLE7=Haunted Hunted
TTITLE8=All Abandon
TTITLE9=The Edge Of Time
EXTD=
EXTT0=
EXTT1=
EXTT2=
EXTT3=
EXTT4=
EXTT5=
EXTT6=
EXTT7=
EXTT8=
EXTT9=
PLAYORDER=
